<?xml version="1.0" encoding="utf-8"?>
<!-- Generator: Adobe Illustrator 25.2.3, SVG Export Plug-In . SVG Version: 6.00 Build 0)  -->
<svg version="1.1" id="Capa_1" xmlns="http://www.w3.org/2000/svg" xmlns:xlink="http://www.w3.org/1999/xlink" x="0px" y="0px"
	 viewBox="0 0 327.2 532.4" style="enable-background:new 0 0 327.2 532.4;" xml:space="preserve">
<style type="text/css">
	.st0{fill:#272626;}
	.st1{fill:#C98C41;}
	.st2{fill:#EFEAE6;}
</style>
<g>
	<g>
		<path class="st2" d="M283,277.5c7.6-23.8,9.5-51.7,4.5-77.6c-3.2-16.6-11.6-32.7-24.3-46.7c-19.9-21.9-46.3-30.1-71.8-38.1
			c-19.1-6-37.1-11.6-51.6-22.6l-2.6-2c-8.6-6.4-18.3-13.7-21.5-21.1c-3.2-7.5-12.3-11.1-20.4-8.5c-8.3,2.8-13.1,11-11,18.9
			L154.6,348c-15.5-4.1-33.3-4.4-51.5,0.3c-44.3,11.6-73.3,48.1-64.6,81.3s51.9,50.7,96.2,39.1c44.3-11.6,73.3-48.1,64.6-81.3
			l-46-175.3c26.4,2.3,71.7,13.9,96.1,62.4c-1.3,3.3-2.4,6.8-4,9.8c-4.2,7.8-1.1,17.1,7,20.8c8.1,3.8,18.1,0.5,22.3-7.3
			c3.1-5.7,5.5-12.1,7.7-18.6C282.6,278.6,282.8,278.1,283,277.5z"/>
	</g>
</g>
</svg>
